<svg version="1.2" xmlns="http://www.w3.org/2000/svg" viewBox="0 0 242 82" width="180" height="60">
	<title>New Project</title>
	<defs>
		<filter x="-50%" y="-50%" width="200%" height="200%" id="f1" ><feDropShadow dx="0" dy="0" stdDeviation="5.416666666666667" flood-color="#000000" flood-opacity=".6"/></filter>
	</defs>
	<style>
		.s0 { filter: url(#f1);fill: #1877f2 } 
		.s1 { fill: #ffffff } 
	</style>
	<path id="Shape 1" class="s0" d="m14 28c0-7.7 6.3-14 14-14h186c7.7 0 14 6.3 14 14v26c0 7.7-6.3 14-14 14h-186c-7.7 0-14-6.3-14-14z"/>
	<path id="Read the Docs" fill-rule="evenodd" class="s1" d="m32.2 32.9h5q2.3 0 3.8 0.5 1.5 0.6 2.2 1.7 0.8 1.2 0.8 2.9 0 1.2-0.5 2.1-0.4 0.8-1.1 1.5-0.8 0.6-1.6 0.9l5 7.5h-4l-4.1-6.6h-1.9v6.6h-3.6zm4.7 3h-1.1v4.6h1.2q1.8 0 2.5-0.6 0.8-0.6 0.8-1.8 0-0.8-0.4-1.3-0.3-0.5-1.1-0.7-0.7-0.2-1.9-0.2zm16.2 0.8q1.8 0 3.1 0.7 1.4 0.7 2.1 2 0.7 1.3 0.7 3.2v1.8h-8.5q0.1 1.5 0.9 2.3 0.9 0.9 2.4 0.9 1.3 0 2.3-0.2 1-0.3 2.1-0.8v2.7q-0.9 0.5-2 0.8-1 0.2-2.6 0.2-1.9 0-3.4-0.7-1.6-0.8-2.4-2.3-0.9-1.5-0.9-3.7 0-2.3 0.8-3.8 0.8-1.6 2.2-2.3 1.4-0.8 3.2-0.8zm0 2.5q-1 0-1.7 0.7-0.7 0.7-0.8 2.1h5q0-0.8-0.3-1.4-0.2-0.6-0.8-1-0.5-0.4-1.4-0.4zm14.2-2.5q2.6 0 4 1.1 1.4 1.1 1.4 3.5v8.7h-2.5l-0.7-1.7h-0.1q-0.5 0.7-1.1 1.1-0.6 0.5-1.4 0.7-0.7 0.2-1.8 0.2-1.2 0-2.1-0.5-0.9-0.4-1.4-1.3-0.6-1-0.6-2.4 0-2.1 1.5-3 1.5-1.1 4.4-1.2h2.3v-0.6q0-1-0.6-1.5-0.5-0.5-1.5-0.5-0.9 0-1.8 0.3-1 0.3-1.9 0.7l-1.1-2.5q1-0.5 2.3-0.8 1.3-0.3 2.7-0.3zm1.9 7.3h-1.4q-1.8 0.1-2.4 0.6-0.7 0.6-0.7 1.5 0 0.9 0.5 1.2 0.5 0.4 1.2 0.4 1.2 0 2-0.7 0.8-0.7 0.8-2zm11.3 6.4q-2.1 0-3.5-1.7-1.4-1.8-1.4-5.1 0-3.4 1.4-5.1 1.4-1.7 3.6-1.7 1 0 1.7 0.2 0.7 0.3 1.2 0.7 0.5 0.4 0.9 1h0.1q0-0.4-0.1-1.1-0.1-0.8-0.1-1.5v-4.2h3.5v18.2h-2.7l-0.7-1.7h-0.1q-0.4 0.5-0.9 1-0.5 0.4-1.2 0.7-0.7 0.3-1.7 0.3zm1.3-2.9q1.5 0 2.1-0.9 0.6-0.9 0.6-2.6v-0.4q0-1.9-0.6-2.9-0.6-1-2.2-1-1.1 0-1.8 1-0.7 1-0.7 2.9 0 2 0.7 2.9 0.7 1 1.9 1zm27.3 0q0.6 0 1.2-0.1 0.5-0.1 1.1-0.3v2.7q-0.6 0.2-1.5 0.4-0.8 0.2-1.8 0.2-1.2 0-2.1-0.4-1-0.4-1.5-1.3-0.5-1-0.5-2.7v-6.3h-1.7v-1.5l1.9-1.2 1.1-2.8h2.2v2.8h3.7v2.7h-3.7v6.3q0 0.8 0.5 1.1 0.4 0.4 1.1 0.4zm8.5-15.6v3.7q0 1-0.1 1.8 0 0.9-0.1 1.3h0.2q0.4-0.7 1-1.1 0.6-0.4 1.3-0.6 0.7-0.2 1.5-0.2 1.4 0 2.5 0.5 1 0.5 1.6 1.5 0.6 1.1 0.6 2.8v8.5h-3.6v-7.6q0-1.5-0.5-2.2-0.5-0.7-1.6-0.7-1.1 0-1.7 0.5-0.6 0.5-0.9 1.5-0.2 1-0.2 2.3v6.2h-3.6v-18.2zm17.6 4.9q1.8 0 3.1 0.7 1.3 0.7 2.1 2 0.7 1.3 0.7 3.2v1.8h-8.5q0.1 1.5 0.9 2.3 0.9 0.9 2.4 0.9 1.3 0 2.3-0.2 1-0.3 2.1-0.8v2.7q-0.9 0.5-2 0.7-1.1 0.3-2.6 0.3-1.9 0-3.5-0.8-1.5-0.7-2.3-2.2-0.9-1.5-0.9-3.7 0-2.3 0.8-3.9 0.8-1.5 2.2-2.3 1.3-0.7 3.2-0.7zm0 2.5q-1 0-1.7 0.7-0.7 0.7-0.8 2.1h5q0-0.8-0.3-1.4-0.2-0.7-0.8-1-0.5-0.4-1.4-0.4zm35.3 2.1q0 2.9-1.1 4.8-1.1 1.9-3.2 2.9-2.1 1-5.1 1h-4.8v-17.1h5.3q2.7 0 4.7 0.9 2 1 3.1 2.9 1.1 1.8 1.1 4.6zm-3.8 0.1q0-1.9-0.5-3.1-0.6-1.3-1.7-1.8-1.1-0.6-2.7-0.6h-1.9v11.1h1.5q2.7 0 4-1.4 1.3-1.4 1.3-4.2zm18.9 2q0 1.7-0.4 2.9-0.4 1.3-1.3 2.2-0.8 0.9-2 1.3-1.2 0.5-2.6 0.5-1.4 0-2.6-0.5-1.1-0.4-2-1.3-0.8-0.9-1.3-2.2-0.5-1.2-0.5-2.9 0-2.1 0.8-3.6 0.8-1.5 2.2-2.3 1.5-0.8 3.4-0.8 1.9 0 3.3 0.8 1.4 0.8 2.2 2.3 0.8 1.5 0.8 3.6zm-9 0q0 1.3 0.3 2.2 0.2 0.9 0.8 1.3 0.6 0.5 1.6 0.5 1 0 1.5-0.5 0.6-0.4 0.9-1.3 0.3-0.9 0.3-2.2 0-1.3-0.3-2.1-0.3-0.9-0.9-1.3-0.6-0.4-1.5-0.4-1.4 0-2.1 0.9-0.6 1-0.6 2.9zm17.3 6.9q-1.9 0-3.3-0.7-1.4-0.8-2.1-2.2-0.7-1.5-0.7-3.9 0-2.4 0.8-3.9 0.8-1.5 2.3-2.2 1.4-0.7 3.3-0.7 1.4 0 2.4 0.2 1 0.3 1.7 0.7l-1 2.7q-0.9-0.3-1.6-0.5-0.7-0.2-1.5-0.2-0.9 0-1.5 0.4-0.7 0.4-1 1.3-0.3 0.9-0.3 2.2 0 1.3 0.4 2.2 0.3 0.8 0.9 1.2 0.6 0.5 1.5 0.5 1.2 0 2-0.3 0.9-0.3 1.7-0.9v3.1q-0.8 0.5-1.7 0.7-0.9 0.3-2.3 0.3zm16.2-4.2q0 1.3-0.7 2.3-0.6 0.9-1.8 1.4-1.3 0.5-3.1 0.5-1.4 0-2.4-0.2-1-0.2-1.9-0.6v-3q1 0.5 2.2 0.8 1.3 0.3 2.2 0.3 1.1 0 1.5-0.3 0.4-0.3 0.4-0.8 0-0.3-0.1-0.6-0.2-0.3-0.8-0.6-0.6-0.3-1.9-0.9-1.2-0.5-2-1-0.8-0.5-1.2-1.2-0.4-0.8-0.4-1.9 0-1.8 1.5-2.7 1.4-0.9 3.7-0.9 1.2 0 2.3 0.2 1.2 0.3 2.3 0.8l-1.1 2.6q-0.9-0.4-1.8-0.7-0.8-0.3-1.7-0.3-0.8 0-1.2 0.2-0.4 0.2-0.4 0.7 0 0.3 0.2 0.6 0.2 0.2 0.8 0.5 0.6 0.3 1.7 0.7 1.2 0.5 2 1 0.8 0.5 1.2 1.2 0.5 0.8 0.5 1.9z"/>
</svg>